<svg version="1.2" xmlns="http://www.w3.org/2000/svg" viewBox="0 0 1500 1000" width="1500" height="1000"><style>.a{fill:#fff}.b{fill:#ffdacf}.c{fill:#d2cce0}.d{fill:none;stroke:#fff;stroke-width:4}.e{fill:#7b7f97}.f{fill:none;stroke:#d2cce0;stroke-width:4}.g{fill:#fbf2fe}.h{fill:none;stroke:#7b7f97;stroke-width:4}.i{fill:none;stroke:#d2cce0;stroke-width:2}.j{fill:none;stroke:#7b7f97;stroke-width:2}.k{fill:none;stroke:#ffdacf;stroke-width:4}</style><path class="a" d="m1500 1000h-1500v-1000h1500z"/><path class="b" d="m987.2 1088.2c-8.9 49.4-48.6 86.6-89 99.1-57.9 17.8-77.5-27.4-156.4-27.6-93.7-0.1-118.4 63.7-191.4 46.5-52.8-12.4-44.1-46.6-102.7-62.5-78.7-21.4-148.3 25.9-171.4-5.4-7.7-10.4-5.8-23.6-5.6-25 8.1-51.9 134-27.7 241.4-107.8 65.7-48.9 70.8-96.9 120.4-99.6 42.3-2.3 48.3 32.1 108.2 49.8 87.7 26 130.2-31.3 187.8 0.8 41.2 22.9 68.2 79.2 58.7 131.7z"/><path class="c" d="m-97.3-16.3c47.4-78.7 129.6-103.5 178.3-117.4 170.2-48.5 387.5 3.8 410.4 97.3 8.5 34.7-9.7 74.9-32.8 97.6-42.9 42.5-88.7 10.4-156.1 40-89.8 39.4-70.8 123.4-164.4 167.9-11.4 5.4-84.8 38.9-160.2 5.1-72.8-32.6-96.4-104.8-101.1-120.5-25.2-85 17.3-155.7 25.9-170z"/><path class="c" d="m1042.6 1209.9c-13-11.2-64.6-55.5-58.5-107 8-67.2 104.3-62.3 197.3-155.1 106.6-106.4 72-204.7 168.5-249.8 81.2-38 167.3 2.9 173.4 5.9 82.9 40.9 106.8 123.4 111.7 140.4 26.9 92.7-13.3 171.4-28.5 201.1-60.4 118.2-175 161.6-220.4 178.9-29 11-226.6 85.9-343.5-14.4z"/><path class="d" d="m1258.4 1340.7c-63.2-4.4-135.3-51.9-140.8-106.3-6.6-65.1 88.2-76.8 165.4-208 56.6-96.2 45.8-158.1 101.2-180.9 43.6-18 101.8-1.1 132.7 33 65.9 72.7-2.4 213.5-23.2 256.2-19.4 40-104.5 215.3-235.3 206z"/><path class="b" d="m1550.5 891.5c-37.7 29.8-102.3 40-133.2 12.2-36.9-33.1 10.2-88-13.4-201-17.4-82.8-55.1-112-35.7-153.1 15.2-32.3 56.6-52.6 91.3-49.2 74.1 7.1 107.6 120.9 117.8 155.5 9.5 32.3 51.2 174-26.8 235.6z"/><path class="e" d="m1295.1 950.3c36 31.8 57.4 93.6 35.6 128.9-26 42.2-88.4 5.5-195.4 48.8-78.5 31.8-100.6 74-144.4 62.2-34.5-9.3-61.8-46.3-64.6-81.1-6.1-74.2 100-127.3 132.2-143.5 30.1-15.1 162.2-81.2 236.6-15.3z"/><path class="e" d="m43.3 614.7c56.5-11 100.9 23.4 107.4 28.5 58.8 46.9 82.5 148.5 30.2 218.1-39.5 52.5-119 82.4-182.9 48.6-66.6-35.3-76.3-118.8-65.4-171.1 9.9-47.5 45.6-111.5 110.7-124.1z"/><path class="f" d="m30 589.6c4 62.3 7.1 130.1 8.6 203 1.8 88.4 1 170.2-1.4 244.1"/><path class="f" d="m61.7 530.8c2 120.3 2.6 246 1.4 376.6-0.5 65.3-1.5 129.2-2.8 191.8"/><path class="f" d="m97.8 557.2c1.4 85.3 1.5 175.7 0 270.6-1.2 69.4-3.2 136.2-5.8 200.1"/><path class="f" d="m125.2 607.2c0 110-1.4 223.8-4.4 341.2q-1.8 71.7-4.3 141.2"/><path class="f" d="m152.6 551.4c0.4 72.1 0.4 145.6 0 220.6-0.8 122.3-2.8 241-5.8 355.9"/><path class="g" d="m-203.4 773.5c37.4-55.9 106-80.3 162.3-74 80.6 9.1 80.4 75.1 177.2 117.5 115 50.3 179.4-14.8 259.9 45.3 58.1 43.4 29.1 80.8 92.5 131.7 85.2 68.3 196 47.6 207.6 98.3 3.9 16.9-5.5 32.1-6.4 33.6-37.8 59.4-179.3-37.6-354.1 3.2-106.8 25-138.8 81.2-201.1 58-53.2-19.8-42.1-65.3-106.2-119.1-93.7-78.7-176.5-31.2-230.1-101.4-38.3-50.1-41.3-133.7-1.6-193.1z"/><path class="b" d="m111.7-73.7c65-49.3 153.5-25.8 203.6 7.5 71.9 47.7 127.8 157.3 79.1 237.4-45.2 74.5-155.7 81.7-228.3 49.7-7.5-3.3-102.9-47.2-113.1-146.9-0.6-6.3-8.4-96.8 58.7-147.7z"/><path class="b" d="m275.7 660c23.3-1.1 38.8 19.8 47.5 31.6 13.6 18.4 33.1 58 15.9 76.9-13.5 14.8-42.6 9.4-58.8 2.3-29.5-13-56.1-49-45.3-79.2 5.7-15.8 22-30.7 40.7-31.6z"/><path class="e" d="m1236.8 789.7c5.4 10-0.6 21.2-4 27.5-5.3 9.9-18.6 26.7-30.6 23-9.3-2.8-13-16.7-13.2-25.4-0.5-15.7 9.8-34.9 25.4-36.4 8.2-0.8 18.1 3.3 22.4 11.3z"/><path class="h" d="m48.5 1157.1c-22.6-38-1.3-82.6 10.8-107.7 18.7-39.2 67.7-107 114.8-95 36.8 9.5 53.6 63 56.1 96.6 4.5 60.9-32.2 137.5-92.5 146.2-31.6 4.5-71-9.4-89.2-40.1z"/><path class="e" d="m944.5-204.8c125.4-105.4 400-67.2 485.9 91.1 33 60.8 49 159.2 1.2 233.8-7.8 12.3-43 67.4-101.4 75.3-68.2 9.3-85.5-57.2-185.1-91.1-114.6-39-176 19.4-234.9-32.2-51.6-45.3-43.6-128-42.6-138.9 7.8-80 65.4-128.3 76.9-138z"/><path class="c" d="m1591.5 103.8c2.8 107.1-113.8 178.6-201.1 181.9-14.9 0.5-78.1 2.8-110.6-39.8-35.8-46.7-9.7-115.3 1.4-144.6 5.3-14.1 63.8-168.3 174.1-157.7 74.4 7.1 134.3 85.4 136.2 160.2z"/><path class="g" d="m1353.3 401.5c8.7 10 0.9 31.7-8.6 43.8-15.7 20.1-48.4 30.1-64.4 16.3-8.9-7.8-11.6-22.1-8.4-33.1 9-31 67.4-43.3 81.4-27z"/><path class="h" d="m7.4 1099.1c-6.1-130.2 85.9-243.2 216.4-259.1 25.5-3.1 51.6-2.3 76.8 2.9 63.2 12.9 118.4 50.3 181.3 64.5 29.6 6.7 61.6 8 90.2-3.5 25.6-10.2 54.4-34 47.7-64.7-2-9.1-8.1-17.4-16.8-20.5-10.5-3.8-22.8 1-29.9 9.6-16.4 19.8-9.1 50.1 5.3 68.7 20.6 26.6 51.5 39.3 82.7 48.9 57.2 17.7 116 19.7 174.5 7.7 56.7-11.6 110.7-33.5 164.5-54.8 65.5-25.9 133.1-54.6 204.5-51.7 59 2.5 118.4 24.7 157.7 70.2 5.6 6.5 14.4 17.5 24.5 36.5 40.9 76.6 42.4 166.5 36.7 229.5"/><path class="h" d="m1679.3-102c2.7 81.6-26 163.8-78.8 226-90.8 106.9-246.9 146.7-377.4 94.4-40.1-16.1-76.6-39.8-115.2-59.1-38.6-19.4-80.9-34.7-124-32.1-49 3.1-93.2 28.8-139.1 46.3-40.1 15.3-90.4 25.5-130.2 4-41.3-22.1-82.8-64.1-70.2-114.9 2.4-9.6 7.7-19 16.4-24.1 24.5-14.4 47.6 12 40.8 36.6-5.9 21.6-30.7 35.9-50.6 41.9-20.8 6.1-42.5 9.1-64.2 8.8-72-0.9-143.8-37-198.9-81.5-42.8-34.6-79.4-76.5-110.8-121.6"/><path class="i" d="m978.3 823c-20.5 60.5-59.1 145.8-134.3 225.1-23.7 25-47.7 45.8-70.4 63.1"/><path class="c" d="m813.4 1078c7.5-1.8 16.9-3.1 27.5-2.2 1.8 0.2 11.4 1.1 23.6 4.9 13.9 4.4 18 8.5 27.1 7.5 6.6-0.8 10.8-3.6 11.7-2.3 1.2 1.7-3.8 8.5-10.2 12.4-12.1 7.5-27 3.6-39.7 0.4-3.1-0.8-14.6-3.9-27.8-12-5.1-3.1-9.3-6.2-12.2-8.7z"/><path class="c" d="m843.4 1048.5c13.1-11.1 24.8-14.3 31.9-15.3 9.6-1.5 9.2 1.2 34.9 2.3 15.1 0.6 24.4 0.1 25.5 3.7 0.4 1.3-0.3 3.3-4.1 6.7-12.5 11.1-38.1 19.2-65.8 11.9-5.4-1.4-13.3-4-22.4-9.3z"/><path class="c" d="m874.3 1013.9c3-3.2 22.8-23.9 47-21.1 9.4 1.1 17.8 5.6 29.2 11.6 5.7 3.1 13.5 7.3 12.8 9.8-0.7 2.3-8.5 1-19.7 2-16.9 1.5-21 6.6-32.2 7.9-8.6 1.1-20.9-0.1-37.1-10.2z"/><path class="c" d="m909.9 964.7c5.3-7.3 14.6-17.1 28.5-20.9 7-1.9 15.7-0.9 33.2 1 10.7 1.2 23.1 2.7 23.4 5.9 0.2 1.9-3.5 3.6-5.8 4.6-30 13.5-45 20.3-64.5 15.3-3.5-0.9-8.7-2.6-14.8-5.9z"/><path class="c" d="m936.6 920.9c6.5-16.1 14.9-22.9 21.5-26.1 11.6-5.6 18.8-0.8 41.6-8.2 5.6-1.8 10.3-3.8 11.4-2.3 1.6 2.4-6.9 11.5-13 16.7-14.3 12.4-29.1 16.6-32.6 17.6-11.2 3-21.2 3.1-28.9 2.3z"/><path class="c" d="m958 876.2c2.3-5.9 7.5-16.6 18.5-22.6 4.7-2.5 13.6-3 31.3-4.1 9.3-0.6 13.7-0.5 14.7 1.8 1.4 2.9-3.5 7.8-5.4 9.7-13.4 13.5-32.9 15.2-40.6 15.7-4.4 0.4-10.8 0.5-18.5-0.5z"/><path class="c" d="m971.1 843c-3-3.6-7.4-10.2-7.7-18.7-0.1-3.9 0.6-7.7 11.9-27.2 10.8-18.8 13.7-21.5 15.9-21 1.6 0.3 2.6 2.3 3.6 5.9 6.4 22.9-3.9 41.2-3.9 41.2-6 10.6-14.4 16.7-19.8 19.8z"/><path class="c" d="m815.1 1076.9c-3.1-9-8.4-22.5-16.7-37.9-13.7-25.4-24.6-35.8-21.7-39.3 3.4-4.1 24.2 3.9 36.6 19.4 2.9 3.6 13.7 17.1 11.3 35.7-1.4 10.8-6.6 18.5-9.5 22.1z"/><path class="c" d="m817.8 985.7c-1.1-6-4.9-27.5 1.3-30.2 5.3-2.2 15.1 10.3 15.5 11 5.7 7.4 9.1 16.5 10.9 37.3 1 11.2 1.5 26.5-0.2 44.8-18.4-25.7-24.9-48.1-27.5-62.9z"/><path class="c" d="m874.2 1013.1c-2.3-10.2-5.4-19.5-9-28-6.5-15.2-11.3-20-14.1-32.8-2.1-9.9-3.3-25.9 2-28 5.8-2.4 17.4 13.6 21.7 20.5 8.4 13.5 9.8 25.6 10 28.2 1.2 11.5-1.2 20.2-1.8 22.4-2.4 8.1-6.1 14-8.8 17.7z"/><path class="c" d="m909.9 964.7c-2.3-4.3-6.2-10.9-11.8-18.5-10.1-13.8-14.7-15.9-21-26.3-7.1-11.6-13.4-28.6-9.1-31.9 3.8-2.9 14.9 5.4 19.4 9.3 8.9 7.9 12.9 16.8 18.4 28.9 3.4 7.6 5.5 12.4 6.2 19.4 0.8 8.1-0.8 14.8-2.1 19.1z"/><path class="c" d="m936 920.6c-5.8-3.2-15-9.2-23.4-19.2-19.3-22.9-22.1-51.5-20.5-52.1 0.3-0.1 0.7 0.9 3.5 4 1.9 2.1 3.5 3.5 4.9 4.9 12.2 11.3 32.6 24.2 37.1 41.4 1.2 4.4 1.9 11.3-1.6 21z"/><path class="c" d="m958.5 876.5c-21.1-11.4-32.2-24.8-38-33.7-0.9-1.4-13.2-20.5-8.8-24.6 2.4-2.3 9.2 1.2 13.2 3.2 16.5 8.5 24.4 23.5 26.7 28.2 2.6 5.3 6.2 14.5 6.9 26.9z"/><path class="j" d="m1409.5 340.1c38.8 50.7 88.1 130.3 112 236.9 7.5 33.6 11.5 65.1 13.2 93.6"/><path class="e" d="m1529.3 619.1c2.7-7.2 6.8-15.7 13.5-24.1 1.1-1.4 7.2-8.9 17.3-16.8 11.3-9.1 17-10.2 21.2-18.4 3.1-5.9 3-11 4.7-11 2 0 4.9 7.9 4.6 15.4-0.5 14.2-12.1 24.5-21.8 33.2-2.4 2.1-11.5 10-25.4 16.4-5.6 2.5-10.4 4.2-14.1 5.3z"/><path class="e" d="m1521.5 577.7c-1.9-17 2-28.5 5-35 4.2-8.8 6.2-7 21.4-27.6 9-12.2 13.8-20.3 17.3-19.2 1.4 0.4 2.6 2.1 3.3 7.1 2.2 16.7-5.3 42.4-26.8 61.4-4.1 3.6-10.7 8.8-20.2 13.3z"/><path class="e" d="m1510 532.8c-1-4.2-7.2-32.3 8.7-50.8 6.1-7.2 14.5-11.6 25.9-17.7 5.7-3 13.5-7.2 15.2-5.2 1.6 1.8-3.9 7.5-9.3 17.4-8.1 14.9-6.2 21.1-11.3 31.2-4 7.7-11.8 17.3-29.2 25.1z"/><path class="e" d="m1489 475.8c-3.1-8.4-6.1-21.6-1.4-35.3 2.3-6.9 7.9-13.6 19.3-27 6.9-8.2 15-17.7 17.9-16.1 1.6 0.9 1 4.9 0.6 7.3-5.5 32.5-8.3 48.7-23.3 62.1-2.7 2.4-7 5.8-13.1 9z"/><path class="e" d="m1467.5 429.3c-9.8-14.4-10.7-25.2-9.7-32.5 1.8-12.7 9.8-16 16.4-39 1.6-5.7 2.6-10.7 4.4-10.7 2.9-0.1 5.7 12.1 6.7 20 2.3 18.8-2.4 33.4-3.6 36.9-3.8 10.9-9.3 19.3-14.2 25.3z"/><path class="e" d="m1442.4 386.6c-3.7-5.2-9.7-15.5-8.5-28 0.5-5.3 5-12.9 14-28.3 4.7-8 7.2-11.6 9.7-11.2 3.1 0.5 4.5 7.3 5 10 3.7 18.5-5.7 35.7-9.5 42.4-2.2 3.9-5.7 9.2-10.7 15.1z"/><path class="e" d="m1422.1 357.2c-4.8 0.5-12.7 0.5-19.9-4-3.3-2.1-6-4.8-16-25.1-9.5-19.3-10.2-23.3-8.5-24.9 1.2-1.1 3.4-0.9 6.9 0.3 22.6 7.5 32 26.2 32 26.2 5.5 10.9 5.9 21.3 5.5 27.5z"/><path class="e" d="m1529.3 617.1c-9.2-2.4-23.3-5.6-40.8-7.3-28.7-2.8-43.4 0.5-44.7-3.8-1.4-5.2 16.8-18 36.5-19.7 4.6-0.4 21.9-1.8 36 10.5 8.2 7.2 11.6 15.9 13 20.3z"/><path class="e" d="m1455.1 564c-5.6-2.4-25.6-11.3-24.3-17.9 1-5.6 16.9-6.7 17.7-6.8 9.4-0.6 18.9 1.7 37.1 11.8 9.8 5.4 22.8 13.5 37.1 25.1-31.7 1-53.9-6.1-67.6-12.2z"/><path class="e" d="m1509.3 532.4c-9.8-3.8-19.2-6.4-28.2-8.1-16.3-3.1-23-1.7-35.1-6.6-9.4-3.7-23.4-11.6-22.2-17.2 1.3-6.2 21-6.9 29.1-6.6 15.9 0.5 26.7 6.1 29 7.4 10.2 5.4 16.1 12.3 17.6 14 5.4 6.4 8.2 12.8 9.8 17.1z"/><path class="e" d="m1489 475.8c-4.9-0.4-12.5-0.8-21.9-0.5-17.2 0.7-21.5 3.3-33.6 2.8-13.6-0.5-31.2-4.8-31.6-10.2-0.3-4.8 12.8-9.3 18.6-10.9 11.6-3.1 21.1-1.4 34.2 0.8 8.3 1.4 13.4 2.3 19.6 5.7 7.2 3.8 11.9 8.8 14.7 12.3z"/><path class="e" d="m1467 429.6c-6 3-16.1 7.3-29.1 8.7-29.7 3.3-55-10.4-54.7-12 0.1-0.3 1.1-0.1 5.3-0.7 2.8-0.4 4.9-0.9 6.8-1.3 16.2-3.8 38.3-13.6 55.1-7.8 4.3 1.5 10.5 4.8 16.6 13.1z"/><path class="e" d="m1442.8 386.3c-21.2 11.2-38.5 12.9-49.1 12.8-1.7-0.1-24.4-0.5-25.4-6.4-0.5-3.3 6.2-7 10-9.1 16.3-9 33.2-7.3 38.3-6.6 5.9 0.8 15.5 3 26.2 9.3z"/><path class="e" d="m424.9-90.1c5.1 8.6 6.5 19.6 2.2 24.6-4.2 5-12.7 2.4-18.1-6-5.4-8.4-5.5-19.6-0.9-24.8 4.6-5.2 11.8-2.5 16.8 6.2z"/><path class="e" d="m448.4-112c1.8 3.7 1.8 8.5 0 10.5-1.9 2-5.1 0.6-7.1-3.1-1.9-3.8-1.8-8.5 0.2-10.5 2-2.1 5-0.7 6.9 3.1z"/><path class="e" d="m473.5-53.3c5.9 7 8.3 15.5 5.1 19-3.2 3.5-10.6 0.9-16.3-5.9-5.8-6.8-7.8-15.4-4.8-19.1 3-3.7 10.1-1 16 6z"/><path class="e" d="m501.5-65.7c6 7.7 7.6 16.6 3.8 19.8-3.7 3.2-11.6-0.1-17.7-7.4-6-7.2-8-16-4.1-19.6 3.9-3.6 12-0.4 18 7.2z"/><path class="e" d="m500.5-137.5c3.1 8.3-1.2 18.7-9 23.2-7.7 4.4-16.8 1.3-20.7-6.9-3.9-8.2-0.4-18.4 8.2-23 8.5-4.5 18.4-1.6 21.5 6.7z"/><path class="e" d="m558.1-85.9c2.1 3.3 0.5 7.7-3.3 9.6-3.8 1.9-8.6 0.5-10.9-2.9-2.2-3.4-1-7.6 3-9.4 3.9-1.9 9.1-0.7 11.2 2.7z"/><path class="e" d="m553-22.1c3.8 5.6 4.3 11.7 1.3 13.4-3 1.7-8.2-1.5-12.1-7-3.8-5.4-4.7-11.2-1.7-13.1 3-1.8 8.7 1.1 12.5 6.7z"/><path class="e" d="m487.9-16.6c7.7 9 9.7 19.6 3.9 24.3-5.8 4.6-16.4 1.8-23.2-6.9-6.8-8.7-8.1-20-3.4-25 4.8-4.9 14.7-1.4 22.7 7.6z"/><path class="e" d="m528.9 2.8c4.9 7.1 6 14.4 2.5 16.3-3.4 1.8-9.9-2.2-14.5-8.8-4.6-6.5-6-13.6-2.9-16 3.1-2.4 9.9 1.4 14.9 8.5z"/><path class="e" d="m607.4-2.1c2.4 3.8 1.9 8.7-1 10.7-2.9 2.1-7 0.6-9.4-3.3-2.4-3.9-2.1-8.6 0.8-10.6 2.9-2.1 7.3-0.7 9.6 3.2z"/><path class="e" d="m528.4-94.2c4.9 7.9 3.1 17.5-3.3 21-6.3 3.6-15.4 0.1-21-7.7-5.5-7.7-5-16.9 2-20.6 7-3.8 17.4-0.6 22.3 7.3z"/><path class="e" d="m581.7-40c3.3 5.7 2.2 12.9-2 15.7-4.3 2.7-10.3 0.1-13.9-5.6-3.6-5.6-3.3-12.2 1.3-15 4.6-2.7 11.4-0.7 14.6 4.9z"/><path class="e" d="m427.4-39.1c2.3 3.1 2.6 7.1 0.5 9-2.1 2-5.6 1.1-7.8-2-2.2-3-2.3-7.1-0.4-9 2-2 5.4-1 7.7 2z"/><path class="e" d="m586.3 40.2c7 10 7.6 19.6 1.5 21.8-6 2.2-15.9-3.8-22.4-13.5-6.4-9.8-7.4-19.8-1.9-22.3 5.5-2.4 15.8 4 22.8 14z"/><path class="e" d="m527.2 54.5c3.4 5.6 3 11.6-1.2 13.5-4.2 2-10.5-0.5-13.8-5.8-3.2-5.3-2.4-11.7 1.7-13.9 4.1-2.3 9.9 0.6 13.3 6.2z"/><path class="e" d="m571.8 81.3c4.8 6.7 4.7 13.1-0.3 14.7-5.1 1.6-13-2.3-17.5-9-4.5-6.8-4.1-13.9 0.6-15.4 4.8-1.6 12.4 3 17.2 9.7z"/><path class="e" d="m644.1 47.3c6.3 6.1 5.5 15.1-1.4 19.7-6.9 4.6-17.1 2.9-23.1-3.6-6.1-6.7-6.2-15.4 0.4-19.6 6.6-4.2 17.8-2.8 24.1 3.5z"/><path class="a" d="m1398.1 63.9c1.9 4.6 0.7 11.3-2.9 14.6-3.6 3.2-7.8 1.6-9.5-3.1-1.6-4.7-0.3-10.6 3-13.5 3.3-3 7.4-2.2 9.4 2z"/><path class="a" d="m1417.6 49.6c1.1 1.7 0.7 4.2-1 5.6-1.7 1.4-3.9 1-5-0.8-1-1.7-0.4-4.2 1.2-5.5 1.6-1.3 3.7-1 4.8 0.7z"/><path class="a" d="m1425.6 81.2c1.7 3.8-0.3 10.4-4 14.5-3.6 4.1-7.7 3.4-9.5-1.2-1.7-4.7-0.5-10.9 3-14.1 3.6-3.1 8.4-2.8 10.5 0.8z"/><path class="a" d="m1454.8 62.1c2.6 2.7 0.3 8.2-4.9 12.4-5.2 4.2-10.6 5.1-12.4 1.7-2.2-3.2-0.7-8.6 3.6-12.2 4.4-3.6 10.7-4.5 13.7-1.9z"/><path class="a" d="m1453.5 26.8c3.2 2.7 1.8 8.2-3.1 12.5-5.4 4.1-12.5 4.9-15.7 1.6-3.2-3.2-1.4-8.7 3.8-12.3 5.1-3.8 11.9-4.6 15-1.8z"/><path class="a" d="m1497 44.6c1.5 1.8 0.7 3.6-1.7 4.2-2.3 0.6-5.2-0.1-6.7-1.7-1.4-1.6-0.8-3.6 1.6-4.3 2.3-0.7 5.4 0.1 6.8 1.8z"/><path class="a" d="m1479.5 76.3c-0.2 3-3.4 6.8-7 8.5-3.5 1.8-6.1 0.9-6-2 0.1-3 2.8-6.9 6.4-8.7 3.6-1.8 6.7-0.8 6.6 2.2z"/><path class="a" d="m1421.7 109.4c2.5 6 2 15.1-1.2 20.2-3.2 5-8.4 3.8-11.6-2.6-3.2-6.3-2.8-15.2 1-19.8 3.9-4.7 9.3-3.9 11.8 2.2z"/><path class="a" d="m1444.8 106.9c1.3 4.1 0.2 10.5-2.2 14.4-2.4 4-5.9 4.4-8.1 1-1.9-3.6-1.1-10 2.1-14.4 3.2-4.5 7.1-5 8.2-1z"/><path class="a" d="m1507.8 90.8c0.1 2.2-2.1 4.5-4.9 4.9-2.9 0.5-5.3-0.9-5.3-3.1 0-2.3 2.3-4.6 5-5 2.8-0.5 5.1 0.9 5.2 3.2z"/><path class="a" d="m1477.8 40.9c3.8 3.2 2.5 7.9-2.6 10.7-5.1 2.9-11.7 3.4-14.9 0.8-3.6-2.4-3.1-7.3 1.6-10.9 4.7-3.6 12.1-3.9 15.9-0.6z"/><path class="a" d="m1505.5 68.7c0.3 3.2-2.8 6.4-6.5 7.2-3.7 0.9-6.5-0.9-6.6-4 0-3.1 2.5-6.4 6-7.3 3.5-0.8 6.8 1 7.1 4.1z"/><path class="a" d="m1390.6 96.1c0.7 2.2 0.4 5-0.7 6.2-1.2 1.2-2.9 0.2-3.6-2-0.8-2.3-0.5-5 0.7-6.1 1.2-1.2 2.8-0.4 3.6 1.9z"/><path class="a" d="m1475.6 113.6c3.3 6.9 3.1 14.6-1.1 17.5-3.7 3.2-10 1.6-13.9-3.9-3.4-5-2.5-13.3 2.2-17.7 4.8-4.4 10.5-2.1 12.8 4.1z"/><path class="a" d="m1441.3 151c2.4 2.2 3 6.1 1.4 8.6-1.7 2.5-5 2.8-7.4 0.7-2.4-2.1-2.9-5.9-1.2-8.5 1.7-2.7 4.9-3 7.2-0.8z"/><path class="a" d="m1467.8 151.9c4 3.8 5.5 8.9 3.1 11.4-2.3 2.5-7.4 2-11.1-1.2-3.8-3.1-4.9-8.2-2.8-11.3 2-3.2 6.7-2.7 10.8 1.1z"/><path class="a" d="m1519.1 127.2c4.4 6.1 3.4 12.1-2.1 13.7-5.5 1.5-14-2.3-18.9-8.7-4.5-6.1-3.3-12.4 2.8-13.7 6.2-1.4 14.4 2.7 18.2 8.7z"/><path class="k" d="m-170.7 249.4c11.5-24.8 42.9-21.3 136.1-41.5 87.9-19.1 115.4-34.2 137.6-16.1 3.6 2.9 8.9 8.2 23.2 63.1 16.4 63.2 12.8 69.2 24.7 112.8 15.6 57.4 28.5 71.4 18.7 87.1-6.6 10.6-17.8 12.8-78 20.9-98 13.3-91.1 10.5-113.6 14.9-62 12.1-75.2 25.4-93.8 14.6-18.4-10.8-23.2-36.1-32.9-86.7-7.3-38.5-3.4-42.9-10.6-88.9-9.3-60.5-18.1-65.8-11.4-80.2z"/><path class="k" d="m-142.8 260.4c11.6-21.4 43.4-10 113.8-24 68.5-13.7 97.5-36.3 116.7-19.7 7 6 6 11.4 13.7 46.7 6.5 29.8 15.8 58.9 23.4 88.5 16.6 64.6 19.8 77 11.6 87.4-5.1 6.5-11.9 9-44.9 13.3-65.4 8.6-74.2 3.4-110.4 9.9-46.4 8.3-60.6 21.9-75 11.6-9.7-6.9-7.9-16.3-16.2-60.2-3.6-18.9-8.6-39.3-18.6-80.2-14.6-60.1-18.9-64.3-14.1-73.3z"/><path class="k" d="m-111.3 272.3c8.9-15.7 32.3-8.8 74.9-16.3 55.2-9.8 82.9-33.5 99.1-19.1 4.1 3.7 5.4 8 7.6 16.4 27.2 102.2 16 114.1 33.4 148.5 3.5 6.8 8.1 14.6 5.1 21.9-4.2 10.3-19.9 11.3-53.1 15.1-68.4 8-102.6 12-114 16.8-9.3 4-17.8 8.7-24.8 4.8-10.1-5.6-5.5-23.1-7.4-52.9-0.9-14.5-7.2-44.9-19.7-105.7-3.4-16.6-4.8-22.8-1.1-29.5z"/><path class="k" d="m-75.9 284.3c6.1-11.6 23.1-7 58.9-14.6 36.6-7.8 49.9-19.2 60.7-11.2 5.9 4.4 5.2 10.2 8.3 31.6 4 28.3 12 65.6 19.4 92.4 6 21.3 8.9 25.8 5.4 31.3-8.5 13.4-33.9-0.7-77.6 8.4-29.5 6.1-41.1 17.2-51.4 10-6.3-4.4-5.6-11.1-8.6-41.2-4-41-6.1-61.6-10.4-78.1-4.6-17.8-8-22.3-4.7-28.6z"/><path class="c" d="m320.5 1061.9c7.3-1.1 16.5 3.1 20 9.5 3.4 6.4-0.5 11.9-8 12.6-7.4 0.7-15.4-3.3-18.5-9.2-3.1-5.9-0.4-11.6 6.5-12.9z"/><path class="c" d="m306.7 1028.4c2.9-0.9 6.5 0.5 7.9 3.4 1.4 3 0 6.2-3 7-2.9 0.8-6.3-0.9-7.6-3.7-1.4-2.8-0.2-5.7 2.7-6.7z"/><path class="c" d="m355.5 1028.3c6.2-1.1 15 4.2 19.6 11 4.6 6.8 2.1 12.5-5.3 13.4-7.4 0.8-15.9-3.2-19.2-9.5-3.3-6.3-1.1-13.2 4.9-14.9z"/><path class="c" d="m338.4 978.9c4.9-2.7 12 2.6 16.2 11.7 4.2 9.1 3.5 17.3-2 18.6-5.4 2-12.7-2-16.3-9.7-3.7-7.6-2.7-17.1 2.1-20.6z"/><path class="c" d="m286.7 967.9c5.1-3.6 12.6 0.5 17.1 9.2 4 9.2 2.5 19.9-3.4 23.4-5.9 3.5-13.2-1.2-16.6-10.1-3.5-8.7-2.2-18.8 2.9-22.5z"/><path class="c" d="m328.5 911.4c3-1.5 5.4 0.4 5.4 4 0.1 3.5-2.1 7.6-5 9.1-2.8 1.5-5.4-0.2-5.6-3.8-0.2-3.7 2.2-7.9 5.2-9.3z"/><path class="c" d="m368 948.4c4.3 1.2 8.6 7.3 9.9 13.1 1.2 5.8-1 9.2-5.2 8-4.3-1.2-8.9-6.6-10.3-12.4-1.4-5.8 1.3-10 5.6-8.7z"/><path class="c" d="m394.9 1044.2c9.6-1.5 22.7 2.5 28.9 9 6.2 6.5 2.5 13.7-7.9 16-10.4 2.4-23.1-1.4-28.4-8.7-5.4-7.4-2.2-14.8 7.4-16.3z"/><path class="c" d="m399.7 1009.8c6.4-0.4 15.4 3.5 20.2 8.4 4.9 4.9 4.2 10.2-1.5 12.1-6 1.4-15-2-20.2-8.3-5.2-6.3-4.6-12.1 1.5-12.2z"/><path class="c" d="m399.3 912.6c3.3 0.7 5.8 4.6 5.4 8.9-0.3 4.3-3.2 7.2-6.5 6.4-3.3-0.7-5.7-4.9-5.4-9.1 0.2-4.1 3.2-6.9 6.5-6.2z"/><path class="c" d="m316 937.9c6-4.4 12.3-0.7 14.6 7.6 2.4 8.5 0.7 18.2-4.2 21.9-4.9 4.5-11.8 1.9-15.3-6.3-3.5-8-1.2-18.8 4.9-23.2z"/><path class="c" d="m366.5 907.8c4.7 0.8 8.2 6.4 8.1 12.1-0.2 5.7-3.8 9.1-8.3 8-4.5-1-8.3-5.8-8.3-11.3 0-5.4 3.9-9.5 8.5-8.8z"/><path class="c" d="m364.3 1084.5c3.6-0.3 7.6 1.2 8.8 3.3 1.2 2.1-0.7 4.2-4.2 4.5-3.6 0.3-7.3-1.2-8.6-3.3-1.2-2.2 0.5-4.2 4-4.5z"/><path class="c" d="m420.7 967.6c11.3-2.4 22.3 0.8 24.9 7.9 3.4 6.5-1.2 15.2-10.6 18.8-8.6 3.1-20.3-1.3-24.9-9.7-4.6-8.5 0.8-16 10.6-17z"/><path class="c" d="m462.5 1030.9c4.1-2.6 9.9-2.1 13 1.2 3 3.3 2.2 8.2-1.7 10.9-3.9 2.7-9.6 2-12.8-1.4-3.2-3.4-2.6-8.2 1.5-10.7z"/><path class="c" d="m473.4 992.9c7-4.5 14.9-4.9 17.7-0.5 2.8 4.3 0.1 11.5-5.8 15.8-5.9 4.2-13.6 4.1-17.5-0.1-3.8-4.1-1.4-10.8 5.6-15.2z"/><path class="c" d="m456.3 909.4c10.4-4.1 18.8-0.5 19 8 0.3 8.6-8.4 19.4-19.4 24.3-10.6 4.3-19.3 0.3-18.9-9.1 0.3-9.4 9.1-19.9 19.3-23.2z"/><path class="e" d="m-23.8-26.7c-2 7.2-9.6 13.9-16.8 14.5-7.3 0.5-10.7-5.3-8.3-12.4 2.3-7.1 9.2-12.7 15.9-13.2 6.6-0.5 10.7 4.3 9.2 11.1z"/><path class="e" d="m12.3-25.7c-0.3 3-3 5.7-6.3 5.8-3.2 0.1-5.6-2.5-5.1-5.5 0.4-3.1 3.3-5.5 6.4-5.5 3.1-0.1 5.3 2.2 5 5.2z"/><path class="e" d="m-7.4 19c-1.5 6-9.8 11.9-17.9 13.4-8.1 1.4-12.3-3.1-10.1-10.2 2.2-7.1 9.3-13.3 16.4-13.8 7.2-0.4 12.5 4.4 11.6 10.6z"/><path class="e" d="m44.7 23.3c0.5 5.6-7.2 9.9-17.2 10.1-10.1 0.2-17.2-3.8-16.2-9.4 0.4-5.7 7-10.7 15.5-11 8.4-0.2 16.7 4.5 17.9 10.3z"/><path class="e" d="m75.7-19.5c1.3 6.1-5.5 11.3-15.3 11.9-10.1-0.1-19.2-5.7-19.9-12.6-0.9-6.7 6.4-11.6 15.9-11 9.4 0.3 18.1 5.6 19.3 11.7z"/><path class="e" d="m110.5 41.6c0.1 3.4-2.5 4.8-5.8 3.4-3.3-1.4-6.1-5-6.3-8.3-0.3-3.2 2.3-4.9 5.7-3.6 3.4 1.3 6.3 5.2 6.4 8.5z"/><path class="e" d="m60.7 62.8c-3 3.4-10.2 4.8-16 3.7-5.8-1.2-8.1-4.6-5.2-8 2.8-3.4 9.6-5.5 15.5-4.4 5.9 1.1 8.6 5.2 5.7 8.7z"/><path class="e" d="m-37.8 48.5c-2.6 9.4-11.6 19.8-20 22.8-8.4 3-13.5-3.3-11.4-13.7 2-10.5 10.7-20.5 19.5-22.5 8.9-1.9 14.4 4 11.9 13.4z"/><path class="e" d="m-8.3 66.9c-2.3 6-9.4 12.6-15.9 15-6.5 2.4-11-0.3-10.4-6.3 1.1-6 7.8-12.9 15.7-15.1 7.9-2.2 12.9 0.8 10.6 6.4z"/><path class="e" d="m80.7 105.9c-2 2.7-6.6 3.4-10.4 1.3-3.8-2-5.2-5.9-3.2-8.6 2.1-2.6 6.8-3.2 10.5-1.2 3.7 1.9 5.1 5.7 3.1 8.5z"/><path class="e" d="m91.3 19.5c1.6 7.2-4.3 11.5-12.9 10.3-8.6-1.3-16.9-6.8-18.3-12.8-2.1-6.3 3-11.5 11.9-11.4 8.8 0 17.8 6.5 19.3 13.9z"/><path class="e" d="m98.3 77.8c-2.6 4-9.1 4.9-14.3 2.5-5.1-2.4-6.8-7.1-4-10.8 2.8-3.7 8.8-5.2 13.7-3 5 2.2 7.2 7.4 4.6 11.3z"/><path class="e" d="m-62.3 4.2c-1.1 3.4-4.1 6.4-6.6 6.7-2.4 0.3-3.5-2.3-2.3-5.7 1.1-3.3 4-6.2 6.5-6.4 2.4-0.3 3.5 2.1 2.4 5.4z"/><path class="e" d="m21.7 103.1c-2.4 11.3-9.7 20.1-17.3 19.6-7.4 0.5-13.4-7.2-12.8-17.3 0.6-9.1 9.3-18 18.9-18.8 9.6-0.8 14.3 7.1 11.2 16.5z"/><path class="e" d="m-53 115.7c0.7 4.8-2.2 9.9-6.4 11.4-4.2 1.4-8.4-1.3-9.3-6-0.9-4.6 2-9.6 6.4-11.1 4.5-1.6 8.6 0.9 9.3 5.7z"/><path class="e" d="m-22.7 141.1c1.2 8.2-1.7 15.6-6.7 16.4-5.1 0.7-10.6-4.6-12.1-11.7-1.6-7.2 1.7-14.2 7.1-16 5.3-1.8 10.4 3.1 11.7 11.3z"/><path class="e" d="m60.6 159.3c-0.5 11.1-7.2 17.4-15.2 14.1-7.9-3.2-14.3-15.5-14.2-27.6 0.3-11.4 7.5-17.7 16-13.6 8.4 4.1 14.4 16.4 13.4 27.1z"/><path class="k" d="m1272.9-4.2c-0.2 44.2-41.4 71.5-64.7 86.9-36.2 23.9-113.1 56.9-147.2 22.4-26.8-27-13.6-81.6 1.5-111.6 27.5-54.6 98.3-101.5 154.4-77.9 29.5 12.3 56.1 44.6 56 80.2z"/><path class="k" d="m1230.1 3.3c-0.1 27.4-25.7 44.4-40.2 54-22.5 14.8-70.3 35.3-91.5 13.9-16.6-16.8-8.4-50.7 0.9-69.4 17.1-33.9 61.1-63 96-48.4 18.4 7.7 34.9 27.7 34.8 49.9z"/><path class="b" d="m971-18c-7.4 38.5-47.7 55.4-70.5 65-35.4 14.9-107.6 31-131.7-4.6-18.8-27.8 1.5-73.1 19.6-96.8 32.8-43 102-72.2 147-42.5 23.6 15.6 41.5 47.9 35.6 78.9z"/></svg>