<svg xmlns="http://www.w3.org/2000/svg" viewBox="0 0 73.44 55.89"><defs><style>.cls-1{fill:#635c86;}</style></defs><g id="Capa_2" data-name="Capa 2"><g id="Capa_1-2" data-name="Capa 1"><path class="cls-1" d="M21.88,46.25a6.62,6.62,0,0,0-4.49-1.53,6.64,6.64,0,0,0-4.49,1.53,5.55,5.55,0,0,0,0,8.11,6.62,6.62,0,0,0,4.49,1.53,6.62,6.62,0,0,0,4.49-1.53,5.55,5.55,0,0,0,0-8.11Z"/><path class="cls-1" d="M61.55,45.06a7.84,7.84,0,0,0-9.36,0,5.53,5.53,0,0,0,0,8.24,7.84,7.84,0,0,0,9.36,0,5.53,5.53,0,0,0,0-8.24Z"/><path class="cls-1" d="M21,19.52a5,5,0,1,0,5,4.95A4.95,4.95,0,0,0,21,19.52ZM23.1,25.3a2.07,2.07,0,1,1,2.11-2.07A2.09,2.09,0,0,1,23.1,25.3Z"/><path class="cls-1" d="M48,18a5,5,0,1,0,5,4.95A4.95,4.95,0,0,0,48,18Zm2.09,5.78a2.2,2.2,0,1,1,2.17-2.19A2.18,2.18,0,0,1,50.08,23.74Z"/><path class="cls-1" d="M12.71,14.53C11.88,13.13,8.59,2.76,4,4,2,4.53-2.19,7.7,1.43,11.15,3,12.6,13.5,15.86,12.71,14.53ZM4.52,7.59c-.95.17-3-.11-3.39,1.31C.51,6.84,2.81,5.45,4.06,5c4.32-1.48,6.9,7.19,7.72,8.78C11.14,12.65,7.32,7.1,4.52,7.59Z"/><path class="cls-1" d="M68.46,4.15c-.45-2-3.4-6.29-7-2.86-1.5,1.45-5.21,11.77-3.85,11S69.48,8.77,68.46,4.15ZM67,6.69V6.6c0-2-1-4.72-4.05-2.13a28.2,28.2,0,0,0-4.32,6.13c.75-2.37,2.69-7.92,3.3-8.56,2.87-3,5.13.75,5.49,2.51A2.92,2.92,0,0,1,67,6.69Z"/><path class="cls-1" d="M17.74,41.4c-4.43.19-5.77,2.16-7.2,5,.33-.58,2.78-4.1,6.86-4.32,5.3-.3,7.09,2.95,7.48,3.92C23.92,43.23,21.92,41.22,17.74,41.4Z"/><path class="cls-1" d="M56.7,40c-4.43.19-5.77,2.16-7.2,5,.33-.58,2.78-4.1,6.86-4.33,5.3-.29,7.09,3,7.49,3.93C62.88,41.78,60.88,39.77,56.7,40Z"/><path class="cls-1" d="M49.5,45a.18.18,0,0,0,0,.08A.59.59,0,0,1,49.5,45Z"/><path class="cls-1" d="M63.94,44.83a2.33,2.33,0,0,0-.09-.27Z"/><path class="cls-1" d="M1.35,49.76c0-.21-6.51-15.22,32.21-18.71C58.68,28.79,77,40.43,71.48,49.18,80.29,37.87,57.81,29.61,36,29.61S-2.86,40.7,1.35,49.76Z"/></g></g></svg>