<svg xmlns="http://www.w3.org/2000/svg" viewBox="0 0 918.57 353.53"><defs><style>.cls-1{fill:#635c86;}</style></defs><g id="Capa_2" data-name="Capa 2"><g id="Capa_1-2" data-name="Capa 1"><path class="cls-1" d="M788.78,330.82H768.5s0,.13,0,0h20.22C788.78,331,788.78,330.82,788.78,330.82Z"/><path class="cls-1" d="M820.84,322.34a8.15,8.15,0,0,1,1.78.33A9.69,9.69,0,0,0,820.84,322.34Z"/><path class="cls-1" d="M818.07,348c3.09,0,5.55-.77,7.39-2.63a9.83,9.83,0,0,1-7.39,2.82,18,18,0,0,1-4.14-.44,20.91,20.91,0,0,1-2.92-1c1.1.36,2,.58,2.77.78a14.65,14.65,0,0,0,3.14.22h0C817.32,347.82,817.7,348,818.07,348Z"/><path class="cls-1" d="M827.73,341.52a21.38,21.38,0,0,0,.87-6.53c0-4.16-.71-7.31-2.11-9.47a6.75,6.75,0,0,0-3.87-2.85,6.58,6.58,0,0,1,3.91,2.85c1.4,2.16,2.09,5.31,2.09,9.47A20.73,20.73,0,0,1,827.73,341.52Z"/><path class="cls-1" d="M848.29,328.32a6.69,6.69,0,0,1-.56,2,10.42,10.42,0,0,1,.57-2.13.57.57,0,0,0,0,.13Z"/><path class="cls-1" d="M867.89,330.82H847.61s0,.13,0,0h20.22C867.89,331,867.89,330.82,867.89,330.82Z"/><path class="cls-1" d="M161.1,132.14q-2.9-5.68-16-5.69t-16.64,5.69q-11.79,15.18-46.95,62.59l-46.94-62.8-1.24-1.26q-1.24-1.47-5.28-2.85a30.08,30.08,0,0,0-9.61-1.37q-13,0-16.14,5.48a17.23,17.23,0,0,0-2,5.59A61.61,61.61,0,0,0,0,144.79v117a67.27,67.27,0,0,0,.31,7.59,15.31,15.31,0,0,0,2,5.48q3.11,5.69,15.72,5.69,13,0,16.13-5.69a15.33,15.33,0,0,0,2-5.38,63.77,63.77,0,0,0,.31-7.27v-71q1,1.26,13.23,18.44T66,232l1.65,2.31a19.18,19.18,0,0,0,5.49,4.33,17,17,0,0,0,17.16-.22q4-2.42,5.07-3.79l3.72-4.95q2.68-3.58,12.62-17.81t15.09-20.76v70.6a42.69,42.69,0,0,0,1,11,9.55,9.55,0,0,0,2.9,4.22,16.37,16.37,0,0,0,5.38,2.53,34.4,34.4,0,0,0,9.51,1.05,32.71,32.71,0,0,0,9.93-1.27q7.84-2.52,7.86-17.07v-117a64.25,64.25,0,0,0-.32-7.38A17,17,0,0,0,161.1,132.14Z"/><path class="cls-1" d="M280.23,178.06q-2.87-5.53-15.77-5.53-13.12,0-15.78,5.33a16.32,16.32,0,0,0-2,5.43,60.8,60.8,0,0,0-.3,7.06v36.27q0,8-5,12.91t-13.12,4.92q-8.08,0-12.91-4.72t-4.81-13.11V190.76q0-7.17-1.23-10.45-2.46-7.77-16.8-7.78-13.11,0-16,5.53a19.3,19.3,0,0,0-1.75,5.33,60.51,60.51,0,0,0-.3,7.17v35.86q0,22.53,13.62,38.21t34.32,15.67a27.45,27.45,0,0,0,15.17-4.5,52.38,52.38,0,0,0,5.53-4.51,21.1,21.1,0,0,0,3.69-4.1,16.24,16.24,0,0,0,2,8.4q2.87,4.92,15.36,4.92,12.71,0,15.78-5.33a14.7,14.7,0,0,0,2-5.22,58.61,58.61,0,0,0,.3-6.87V190.56a61,61,0,0,0-.3-7.07A19.1,19.1,0,0,0,280.23,178.06Z"/><path class="cls-1" d="M362.17,223.16a69.32,69.32,0,0,0-23.76-7q-12.62-1.67-12.62-7.24,0-4.08,10.95-4.08a30.91,30.91,0,0,1,13.08,2.78c4,1.86,6.78,2.79,8.26,2.79q4.28,0,8.35-6.5t4.09-11q0-4.46-6.5-7.42a65.34,65.34,0,0,0-27.09-6.31q-40.28,0-40.28,29.32a38,38,0,0,0,3.53,17q3.52,7.16,8.91,10.49a60.68,60.68,0,0,0,23.2,8.72q12.42,1.67,12.43,5.2,0,4.46-11.32,4.45-6.31,0-14.11-4.55T307,245.25q-4.54,0-6.59,3.15-7,9.84-7.05,14.66t3.53,7.06q16.52,10.39,34.43,10.39t29.78-5.75a23.54,23.54,0,0,0,10.12-10.12q3.61-6.76,3.62-16.42t-3.62-16.06A21.12,21.12,0,0,0,362.17,223.16Z"/><path class="cls-1" d="M425.65,202.49q-10,0-17.38,9.06V178.71a42.4,42.4,0,0,0-.23-5.12,11.94,11.94,0,0,0-1.41-3.94q-1.94-4-11.29-4-9.51,0-11.59,4a12.06,12.06,0,0,0-1.27,3.79,43,43,0,0,0-.22,5.12v88.87a42.71,42.71,0,0,0,.22,5.2,13.83,13.83,0,0,0,1.27,3.87q2.07,4,11.44,4t11.44-3.86a12,12,0,0,0,1.41-3.94,42.59,42.59,0,0,0,.23-5.13V238.75c.39-2.68,1.93-5.08,4.6-7.21a14.49,14.49,0,0,1,9.29-3.19,11.76,11.76,0,0,1,8.69,3.42q3.42,3.42,3.42,9.51v26a46.3,46.3,0,0,0,.23,5.35,11.57,11.57,0,0,0,1.41,4q2.22,3.86,11.29,3.86,9.51,0,11.44-3.86a11.84,11.84,0,0,0,1.42-3.94,45.33,45.33,0,0,0,.22-5.13V241.43q0-16.35-9.88-27.65A31.55,31.55,0,0,0,425.65,202.49Z"/><path class="cls-1" d="M597.14,173.74a12.4,12.4,0,0,0-1.29-3.94,6.19,6.19,0,0,0-3.92-3.12,32,32,0,0,0-15,0,6.28,6.28,0,0,0-3.94,3,12.42,12.42,0,0,0-1.42,3.86,42,42,0,0,0-.29,5.13v31.21c-4-5-9.69-7.44-17-7.44q-13.21,0-24.26,11.74a39.14,39.14,0,0,0,0,54.47q11,11.67,24.37,11.66,11.16,0,17.4-7.13,1.18,7.29,11.52,7.28t12.55-4a10.16,10.16,0,0,0,1.33-3.79,46.52,46.52,0,0,0,.15-5.12V178.87A46.63,46.63,0,0,0,597.14,173.74ZM567.35,250.5a11.82,11.82,0,0,1-9.14,4A13.45,13.45,0,0,1,545,241.58a13.39,13.39,0,0,1,3.56-9,12,12,0,0,1,9.52-4.09,11.68,11.68,0,0,1,9.43,4.16,13.73,13.73,0,0,1,3.5,9A12.9,12.9,0,0,1,567.35,250.5Z"/><path class="cls-1" d="M712.31,204.12a11.9,11.9,0,0,0-3.93-1.41,42.28,42.28,0,0,0-5.06-.22c-2.22,0-5.52.2-9.88.59V188.52a28,28,0,0,0-.74-7.58q-1.94-5.49-12-5.5a12.61,12.61,0,0,0-4.66,1c-2.56,1-8.42,9.07-8.42,11.35v15.3l-4.9-.59a9.08,9.08,0,0,0-5.94,1.93,8,8,0,0,0-2.09,3.94,37.71,37.71,0,0,0-.74,8.84q0,6.11,2.16,8.62a6.8,6.8,0,0,0,5.42,2.53,38.7,38.7,0,0,0,6.09-.45v22q0,16.64,8,23.62t23.48,7a41.33,41.33,0,0,0,5-.22A13.69,13.69,0,0,0,708,279q4.15-2.07,4.16-11.44,0-8-3.42-10a10.64,10.64,0,0,0-3.94-1.41,48,48,0,0,0-5.35-.22c-2.33,0-3.92-.6-4.75-1.78s-1.27-3.13-1.27-5.8V227.9l9.66.6a42.59,42.59,0,0,0,5.13-.23,13.64,13.64,0,0,0,3.94-1.26q4-2.08,4-11.44Q716.18,206.06,712.31,204.12Z"/><path class="cls-1" d="M812,192.38q-15.54-14.52-35.77-14.52t-36,14.61q-15.74,14.61-15.74,37.09a47.22,47.22,0,0,0,8,26.88,53,53,0,0,0,19.57,18,51,51,0,0,0,24,6.09,53.1,53.1,0,0,0,23.88-5.71q11.52-5.71,19.57-17.8a48.64,48.64,0,0,0,8.06-27.63Q827.53,206.9,812,192.38Zm-23.79,50.48q-6.18,4.68-12.36,4.68T763.65,243q-6-4.57-6-13.67t5.81-13.77A19.6,19.6,0,0,1,776,210.83a20.14,20.14,0,0,1,12.55,4.49q5.8,4.5,5.8,13.68T788.19,242.86Z"/><path class="cls-1" d="M914.53,226.44q-4-7.16-10.07-10.07a77.44,77.44,0,0,0-26.57-7.88q-14.11-1.87-14.11-8.1,0-4.56,12.25-4.56a34.45,34.45,0,0,1,14.63,3.11q6.74,3.12,9.23,3.11,4.79,0,9.34-7.26t4.57-12.25q0-5-7.26-8.3-15.57-7.05-30.31-7.06-45,0-45,32.8,0,11,3.95,19t10,11.73A67.84,67.84,0,0,0,871,240.45q13.9,1.88,13.91,5.81,0,5-12.66,5-7.06,0-15.78-5.08t-13.8-5.09c-3.39,0-5.84,1.18-7.37,3.53q-7.89,11-7.88,16.4t3.94,7.89q18.47,11.63,38.5,11.62t33.32-6.43a26.3,26.3,0,0,0,11.31-11.32q4.05-7.56,4-18.36T914.53,226.44Z"/><path class="cls-1" d="M504.93,161.57c-4.07-3.54-9.34-5.33-15.69-5.33s-11.62,1.79-15.68,5.33a19.38,19.38,0,0,0,0,28.34c4.06,3.54,9.33,5.33,15.68,5.33s11.63-1.79,15.69-5.32a19.39,19.39,0,0,0,0-28.35Z"/><path class="cls-1" d="M643.5,157.4c-4.23-3.59-9.73-5.41-16.34-5.41s-12.11,1.82-16.35,5.41a19.37,19.37,0,0,0,0,28.81c4.24,3.59,9.73,5.41,16.35,5.41s12.11-1.82,16.34-5.41a19.35,19.35,0,0,0,0-28.81Z"/><path class="cls-1" d="M501.94,68.18a17.31,17.31,0,1,0,17.31,17.31A17.31,17.31,0,0,0,501.94,68.18Zm7.26,20.19a7.22,7.22,0,1,1,7.37-7.22A7.3,7.3,0,0,1,509.2,88.37Z"/><path class="cls-1" d="M596.16,62.73A17.31,17.31,0,1,0,613.47,80,17.3,17.3,0,0,0,596.16,62.73Zm7.28,20.19A7.66,7.66,0,1,1,611,75.27,7.62,7.62,0,0,1,603.44,82.92Z"/><path class="cls-1" d="M472.9,50.75C470,45.88,458.51,9.64,442.4,14c-7,1.88-21.57,13-8.91,25C438.79,44,475.67,55.42,472.9,50.75ZM444.29,26.52c-3.34.58-10.41-.38-11.86,4.57-2.15-7.21,5.89-12,10.26-13.55,15.07-5.17,24.09,25.1,27,30.68C467.4,44.21,454.05,24.81,444.29,26.52Z"/><path class="cls-1" d="M667.65,14.49c-1.55-7.06-11.86-22-24.41-10C638,9.56,625,45.61,629.79,43.07,634.75,40.43,671.21,30.65,667.65,14.49Zm-5.16,8.88c0-.1,0-.2,0-.3-.13-6.89-3.31-16.49-14.15-7.45-2.15,1.79-11.48,13.65-15.1,21.42,2.65-8.27,9.41-27.68,11.54-29.92,10-10.49,17.94,2.62,19.17,8.79A10.18,10.18,0,0,1,662.49,23.37Z"/><path class="cls-1" d="M515.74,161.69a6.19,6.19,0,0,0-.32-.94C515.52,161.06,515.64,161.37,515.74,161.69Z"/><path class="cls-1" d="M490.45,144.62c-15.48.66-20.16,7.56-25.15,17.51,1.17-2,9.72-14.31,24-15.11,18.52-1,24.77,10.34,26.16,13.73C512.06,151,505.06,144,490.45,144.62Z"/><path class="cls-1" d="M465.3,162.13a2.16,2.16,0,0,0-.15.28Z"/><path class="cls-1" d="M626.56,139.55c-15.47.66-20.15,7.57-25.15,17.51,1.17-2,9.73-14.31,24-15.1,18.52-1,24.78,10.34,26.16,13.72C648.17,146,641.17,138.93,626.56,139.55Z"/><path class="cls-1" d="M601.41,157.06a1.54,1.54,0,0,0-.14.28C601.32,157.25,601.36,157.15,601.41,157.06Z"/><path class="cls-1" d="M651.86,156.62a5.68,5.68,0,0,0-.33-.94C651.64,156,651.76,156.3,651.86,156.62Z"/><path class="cls-1" d="M433.21,173.83c-.06-.72-22.75-53.18,112.5-65.36,87.77-7.9,151.62,32.79,132.51,63.34,30.77-39.53-47.78-68.36-123.83-68.36S418.48,142.18,433.21,173.83Z"/><path class="cls-1" d="M503,213.78a182.08,182.08,0,0,1-24.41-6.89h0c-.89-.53-.88,2.29-.95,3.25-.09,1.15-.24,2.85-.24,5.13v52.16a39.72,39.72,0,0,0,.24,5.2,13.7,13.7,0,0,0,1.25,3.87q2.08,4,11.45,4t11.44-3.87a11.9,11.9,0,0,0,1.41-3.93,42.94,42.94,0,0,0,.22-5.13v-52C503.37,214.94,503.51,213.8,503,213.78Z"/><path class="cls-1" d="M638.07,204.42s-14.24,6-23.2,7.73c-.67.36-.5,1.95-.5,3.11l.16,52.17a40.17,40.17,0,0,0,.23,5.2A13.77,13.77,0,0,0,616,276.5q2.07,4,11.44,4t11.44-3.87a12.18,12.18,0,0,0,1.42-3.93,45.21,45.21,0,0,0,.22-5.13v-52c0-1.89,0-3.32-.15-4.31C640.29,208.38,641.37,202.68,638.07,204.42Z"/><path class="cls-1" d="M752,321.45a11.8,11.8,0,0,0-9.9-4.74,15.4,15.4,0,0,0-6.42,1.29,39,39,0,0,0-5.42,3.33V303.82h-6v49h5.79l.38-1.77a24,24,0,0,0,4.44,1.81,17.41,17.41,0,0,0,5.26.67,14.12,14.12,0,0,0,5.93-1.25,15.51,15.51,0,0,0,4.95-3.71,17.56,17.56,0,0,0,3.37-5.87,23.33,23.33,0,0,0,1.25-7.87Q755.66,326.19,752,321.45ZM746.71,345a9.79,9.79,0,0,1-7.75,3.2,18.67,18.67,0,0,1-4.22-.44,42.07,42.07,0,0,1-4.45-1.56v-20a41.35,41.35,0,0,1,5-2.86,13.74,13.74,0,0,1,5.3-1.11c3.11,0,5.38,1.08,6.77,3.23s2.1,5.31,2.1,9.47C749.5,339.54,748.58,342.89,746.71,345Z"/><path class="cls-1" d="M794.29,332.53c0-5.06-1.14-9-3.73-11.7s-6.2-4.12-11-4.12c-5.16,0-9.29,1.67-12.45,5s-4.72,7.87-4.72,13.57,1.66,10.21,5,13.34,7.89,4.69,13.75,4.69a27,27,0,0,0,6.81-.84,52.4,52.4,0,0,0,6.35-2.09v-6.58h-.72a16,16,0,0,1-5.21,2.88,20.29,20.29,0,0,1-7.28,1.47,15.8,15.8,0,0,1-5-.72,10.65,10.65,0,0,1-3.91-2.24,10.25,10.25,0,0,1-2.7-3.85,14.94,14.94,0,0,1-1-5.54h25.79Zm-25.79-1.71c.1-.75.79-1.61.79-2.5h0c0-1.49,1.32-3,2.51-4.19,1.89-1.85,4.39-2.68,7.58-2.68s5.51.7,7.06,2.38a10,10,0,0,1,2.34,7Z"/><path class="cls-1" d="M831.14,321.45a11.8,11.8,0,0,0-9.9-4.74,15.8,15.8,0,0,0-6.49,1.29,39.84,39.84,0,0,0-5.46,3.33V303.82h-6v49h5.9l.39-1.77a23.59,23.59,0,0,0,4.43,1.81,17.41,17.41,0,0,0,5.26.67,14.12,14.12,0,0,0,5.93-1.25,15.4,15.4,0,0,0,4.95-3.71,17.56,17.56,0,0,0,3.37-5.87,23.09,23.09,0,0,0,1.25-7.87Q834.77,326.19,831.14,321.45Zm-3.85,21.21c-.08.18-.16.36-.25.53s-.16.31-.24.45a9,9,0,0,1-1,1.38l-.36.38c-.11.12-.23.23-.35.34l-.27.22-.27.21-.21.16-.52.34-.29.16a1.59,1.59,0,0,1-.29.15l-.41.19-.17.07,0,0h0l0,0a6.5,6.5,0,0,1-.81.32,3.08,3.08,0,0,1-.65.21h0a5.92,5.92,0,0,0-.82.1,1.55,1.55,0,0,1-.22,0c-.24,0-.48.05-.73.06h-.44l-.81,0c-.37,0-.75-.21-1.12-.21h0a14.65,14.65,0,0,1-3.14-.22c-.82-.2-1.67-.42-2.77-.78-.51-.16-1.08-.36-1.72-.6v-20a42.48,42.48,0,0,1,5.09-2.86,13.67,13.67,0,0,1,4.1-1c.22,0,.44,0,.65-.05a5.62,5.62,0,0,1,.58,0c.39,0,.76,0,1.13,0a9.69,9.69,0,0,1,1.78.33,6.75,6.75,0,0,1,3.87,2.85c1.4,2.16,2.11,5.31,2.11,9.47a21.38,21.38,0,0,1-.87,6.53A11.75,11.75,0,0,1,827.29,342.66Z"/><polygon class="cls-1" points="860.01 311.85 868.62 300.24 860.92 300.24 855.27 311.85 855.24 311.9 859.97 311.9 860.01 311.85"/><path class="cls-1" d="M873.29,332.53c0-5.06-1.09-9-3.68-11.7s-6.17-4.12-10.94-4.12c-5.16,0-9.27,1.67-12.43,5s-4.71,7.87-4.71,13.57,1.66,10.21,5,13.34,7.88,4.69,13.76,4.69a26.54,26.54,0,0,0,6.74-.84,51.65,51.65,0,0,0,6.3-2.09v-6.58h-.61a16,16,0,0,1-5.21,2.88,20.25,20.25,0,0,1-7.28,1.47,15.8,15.8,0,0,1-5-.72,10.65,10.65,0,0,1-3.91-2.24,10.25,10.25,0,0,1-2.7-3.85,14.94,14.94,0,0,1-1-5.54h25.68Zm-25.68-1.71a3.11,3.11,0,0,1,.11-.49v0a6.69,6.69,0,0,0,.56-2v-.15c0-1.45,1.41-2.92,2.55-4.05a10.4,10.4,0,0,1,7.62-2.68c3.17,0,5.53.7,7.08,2.38a10,10,0,0,1,2.35,7Z"/><path class="cls-1" d="M899.36,333.15c-.91-.21-2-.44-3.4-.69s-2.6-.5-3.7-.75a10.8,10.8,0,0,1-4.31-1.77,4.29,4.29,0,0,1,.89-6.91,11.25,11.25,0,0,1,5.51-1.24,19.37,19.37,0,0,1,6.41,1.14,21.57,21.57,0,0,1,5.54,2.79h.32v-6.27a25.06,25.06,0,0,0-5.4-1.85,28,28,0,0,0-6.42-.77,20.5,20.5,0,0,0-6.13.86,13.1,13.1,0,0,0-4.52,2.33,9.66,9.66,0,0,0-2.74,3.4,9.34,9.34,0,0,0-.91,4.05,8.78,8.78,0,0,0,2,5.79c1.3,1.57,3.51,2.76,6.61,3.57,1.12.29,2.36.56,3.73.81s2.46.47,3.31.66a11.15,11.15,0,0,1,4.63,1.8,4,4,0,0,1,1.2,3.12,4.21,4.21,0,0,1-2.22,3.94,12.66,12.66,0,0,1-6.15,1.24,19.71,19.71,0,0,1-6.62-1.23,24.15,24.15,0,0,1-6.28-3.32h-.31v6.58a31.62,31.62,0,0,0,5.5,2,26.35,26.35,0,0,0,7.21.92q6.93,0,11-3.05a9.45,9.45,0,0,0,4-7.83,8.4,8.4,0,0,0-2.25-6.12A12.7,12.7,0,0,0,899.36,333.15Z"/></g></g></svg>