<?xml version="1.0" standalone="no"?><svg xmlns="http://www.w3.org/2000/svg" viewBox="0 0 1440 320"><path fill="#d488ff" fill-opacity="1" d="M0,96L18.5,101.3C36.9,107,74,117,111,122.7C147.7,128,185,128,222,154.7C258.5,181,295,235,332,224C369.2,213,406,139,443,128C480,117,517,171,554,160C590.8,149,628,75,665,48C701.5,21,738,43,775,53.3C812.3,64,849,64,886,64C923.1,64,960,64,997,85.3C1033.8,107,1071,149,1108,144C1144.6,139,1182,85,1218,64C1255.4,43,1292,53,1329,58.7C1366.2,64,1403,64,1422,64L1440,64L1440,0L1421.5,0C1403.1,0,1366,0,1329,0C1292.3,0,1255,0,1218,0C1181.5,0,1145,0,1108,0C1070.8,0,1034,0,997,0C960,0,923,0,886,0C849.2,0,812,0,775,0C738.5,0,702,0,665,0C627.7,0,591,0,554,0C516.9,0,480,0,443,0C406.2,0,369,0,332,0C295.4,0,258,0,222,0C184.6,0,148,0,111,0C73.8,0,37,0,18,0L0,0Z"></path></svg>