<?xml version="1.0" standalone="no"?><svg xmlns="http://www.w3.org/2000/svg" viewBox="0 0 1440 320"><path fill="#d488ff" fill-opacity="1" d="M0,192L24,197.3C48,203,96,213,144,192C192,171,240,117,288,133.3C336,149,384,235,432,245.3C480,256,528,192,576,165.3C624,139,672,149,720,165.3C768,181,816,203,864,224C912,245,960,267,1008,245.3C1056,224,1104,160,1152,149.3C1200,139,1248,181,1296,208C1344,235,1392,245,1416,250.7L1440,256L1440,320L1416,320C1392,320,1344,320,1296,320C1248,320,1200,320,1152,320C1104,320,1056,320,1008,320C960,320,912,320,864,320C816,320,768,320,720,320C672,320,624,320,576,320C528,320,480,320,432,320C384,320,336,320,288,320C240,320,192,320,144,320C96,320,48,320,24,320L0,320Z"></path></svg>